# xmcd
#
# Track frame offsets:
#	150
#	23652
#	48039
#	73576
#	104055
#	129116
#	159116
#	175451
#	190769
#
# Disc length: 2595 seconds
#
# Revision: 0
# Processed by: cddbd v1.5.2PL0 Copyright (c) Steve Scherf et al.
# Submitted via: dBpowerAMP V4.0
#
DISCID=6a0a2109
DTITLE=Derek Trucks Band - Live At Sioux Falls Jazz And Blues Festival, 2007, Cd 2
DYEAR=1900
DGENRE=Blues
TTITLE0=Voluntoored  Slavery
TTITLE1=Up Above My Head
TTITLE2=Crow Jane
TTITLE3=Soul Serenade
TTITLE4=Leavin' Trunk
TTITLE5=All I Do
TTITLE6=Soul Of A Man
TTITLE7=Walking Blues
TTITLE8=Count M'Butu , Solo
EXTD=
EXTT0=
EXTT1=
EXTT2=
EXTT3=
EXTT4=
EXTT5=
EXTT6=
EXTT7=
EXTT8=
PLAYORDER=
